<svg width="196" height="69" viewBox="0 0 196 69" fill="none" xmlns="http://www.w3.org/2000/svg">
<path d="M20.9 48.6C18.2 48.6 15.6833 48.1667 13.35 47.3C11.05 46.4 9.05 45.1333 7.35 43.5C5.65 41.8667 4.31667 39.95 3.35 37.75C2.41667 35.55 1.95 33.1333 1.95 30.5C1.95 27.8667 2.41667 25.45 3.35 23.25C4.31667 21.05 5.65 19.1333 7.35 17.5C9.08333 15.8667 11.1 14.6167 13.4 13.75C15.7 12.85 18.2167 12.4 20.95 12.4C23.9833 12.4 26.7167 12.9333 29.15 14C31.6167 15.0333 33.6833 16.5667 35.35 18.6L30.15 23.4C28.95 22.0333 27.6167 21.0167 26.15 20.35C24.6833 19.65 23.0833 19.3 21.35 19.3C19.7167 19.3 18.2167 19.5667 16.85 20.1C15.4833 20.6333 14.3 21.4 13.3 22.4C12.3 23.4 11.5167 24.5833 10.95 25.95C10.4167 27.3167 10.15 28.8333 10.15 30.5C10.15 32.1667 10.4167 33.6833 10.95 35.05C11.5167 36.4167 12.3 37.6 13.3 38.6C14.3 39.6 15.4833 40.3667 16.85 40.9C18.2167 41.4333 19.7167 41.7 21.35 41.7C23.0833 41.7 24.6833 41.3667 26.15 40.7C27.6167 40 28.95 38.95 30.15 37.55L35.35 42.35C33.6833 44.3833 31.6167 45.9333 29.15 47C26.7167 48.0667 23.9667 48.6 20.9 48.6ZM40.2699 48V10.9H48.0699V48H40.2699ZM55.309 48V21.1H63.109V48H55.309ZM59.209 17.35C57.7757 17.35 56.609 16.9333 55.709 16.1C54.809 15.2667 54.359 14.2333 54.359 13C54.359 11.7667 54.809 10.7333 55.709 9.9C56.609 9.06666 57.7757 8.65 59.209 8.65C60.6423 8.65 61.809 9.05 62.709 9.85C63.609 10.6167 64.059 11.6167 64.059 12.85C64.059 14.15 63.609 15.2333 62.709 16.1C61.8423 16.9333 60.6757 17.35 59.209 17.35ZM86.698 20.7C88.8314 20.7 90.7314 21.1333 92.398 22C94.098 22.8333 95.4314 24.1333 96.398 25.9C97.3647 27.6333 97.848 29.8667 97.848 32.6V48H90.048V33.8C90.048 31.6333 89.5647 30.0333 88.598 29C87.6647 27.9667 86.3314 27.45 84.598 27.45C83.3647 27.45 82.248 27.7167 81.248 28.25C80.2814 28.75 79.5147 29.5333 78.948 30.6C78.4147 31.6667 78.148 33.0333 78.148 34.7V48H70.348V21.1H77.798V28.55L76.398 26.3C77.3647 24.5 78.748 23.1167 80.548 22.15C82.348 21.1833 84.398 20.7 86.698 20.7ZM115.968 48L100.868 13H109.618L122.818 44H117.668L131.068 13H139.118L123.968 48H115.968ZM152.839 48.4C149.772 48.4 147.072 47.8 144.739 46.6C142.439 45.4 140.655 43.7667 139.389 41.7C138.122 39.6 137.489 37.2167 137.489 34.55C137.489 31.85 138.105 29.4667 139.339 27.4C140.605 25.3 142.322 23.6667 144.489 22.5C146.655 21.3 149.105 20.7 151.839 20.7C154.472 20.7 156.839 21.2667 158.939 22.4C161.072 23.5 162.755 25.1 163.989 27.2C165.222 29.2667 165.839 31.75 165.839 34.65C165.839 34.95 165.822 35.3 165.789 35.7C165.755 36.0667 165.722 36.4167 165.689 36.75H143.839V32.2H161.589L158.589 33.55C158.589 32.15 158.305 30.9333 157.739 29.9C157.172 28.8667 156.389 28.0667 155.389 27.5C154.389 26.9 153.222 26.6 151.889 26.6C150.555 26.6 149.372 26.9 148.339 27.5C147.339 28.0667 146.555 28.8833 145.989 29.95C145.422 30.9833 145.139 32.2167 145.139 33.65V34.85C145.139 36.3167 145.455 37.6167 146.089 38.75C146.755 39.85 147.672 40.7 148.839 41.3C150.039 41.8667 151.439 42.15 153.039 42.15C154.472 42.15 155.722 41.9333 156.789 41.5C157.889 41.0667 158.889 40.4167 159.789 39.55L163.939 44.05C162.705 45.45 161.155 46.5333 159.289 47.3C157.422 48.0333 155.272 48.4 152.839 48.4ZM182.032 48.4C178.865 48.4 176.398 47.6 174.632 46C172.865 44.3667 171.982 41.95 171.982 38.75V15.15H179.782V38.65C179.782 39.7833 180.082 40.6667 180.682 41.3C181.282 41.9 182.098 42.2 183.132 42.2C184.365 42.2 185.415 41.8667 186.282 41.2L188.382 46.7C187.582 47.2667 186.615 47.7 185.482 48C184.382 48.2667 183.232 48.4 182.032 48.4ZM167.832 27.7V21.7H186.482V27.7H167.832Z" fill="#34BFA2"/>
<line x1="108" y1="65" x2="196" y2="65" stroke="#34BFA2" stroke-width="8"/>
</svg>
